HIERARCHY
ROOT hip
{
  OFFSET 0.00112043 5.09927 -9.65472
  CHANNELS 6 Xposition Yposition Zposition Zrotation Xrotation Yrotation
  JOINT abdomen
  {
    OFFSET 0 -1.186 -1.5018
    CHANNELS 3 Zrotation Xrotation Yrotation
    JOINT abdomen2
    {
      OFFSET 0 9.964 0.2134
      CHANNELS 3 Zrotation Xrotation Yrotation
      JOINT chest
      {
        OFFSET 0 13.134 -3.2573
        CHANNELS 3 Zrotation Xrotation Yrotation
        JOINT neck
        {
          OFFSET 0 20.686 -1.6905
          CHANNELS 3 Zrotation Xrotation Yrotation
          JOINT head
          {
            OFFSET 0 7.238 -0.1237
            CHANNELS 3 Zrotation Xrotation Yrotation
            End Site
            {
              OFFSET 0 0 0
            }
          }
        }
        JOINT lCollar
        {
          OFFSET 1.7069 20.075 5.0056
          CHANNELS 3 Zrotation Xrotation Yrotation
          JOINT lShldr
          {
            OFFSET 13.6458 -0.047 -4.849
            CHANNELS 3 Zrotation Xrotation Yrotation
            JOINT lForeArm
            {
              OFFSET 28.3255 -0.9759 2.2888
              CHANNELS 3 Zrotation Xrotation Yrotation
              JOINT lHand
              {
                OFFSET 22.1583 -0.53 10.8316
                CHANNELS 3 Zrotation Xrotation Yrotation
                JOINT lThumb1
                {
                  OFFSET 0.786 0.112 2.5817
                  CHANNELS 3 Zrotation Xrotation Yrotation
                  JOINT lThumb2
                  {
                    OFFSET 0.3601 -0.878 4.2331
                    CHANNELS 3 Zrotation Xrotation Yrotation
                    JOINT lThumb2_End
                    {
                      OFFSET 1.8127 -1.216 2.2227
                      CHANNELS 3 Zrotation Xrotation Yrotation
                      End Site
                      {
                        OFFSET 0.0181 -0.0122 0.0222
                      }
                    }
                  }
                }
                JOINT lCarpal1
                {
                  OFFSET 0.9571 1.114 1.7695
                  CHANNELS 3 Zrotation Xrotation Yrotation
                  JOINT lIndex1
                  {
                    OFFSET 4.1246 0.487 4.1451
                    CHANNELS 3 Zrotation Xrotation Yrotation
                    JOINT lIndex2
                    {
                      OFFSET 3.4052 -1.454 2.7682
                      CHANNELS 3 Zrotation Xrotation Yrotation
                      JOINT lIndex2_End
                      {
                        OFFSET 1.4531 -1.795 1.2713
                        CHANNELS 3 Zrotation Xrotation Yrotation
                        End Site
                        {
                          OFFSET 0.0145 -0.0179 0.0127
                        }
                      }
                    }
                  }
                  JOINT lMid1
                  {
                    OFFSET 5.6954 0.21 2.1184
                    CHANNELS 3 Zrotation Xrotation Yrotation
                    JOINT lMid2
                    {
                      OFFSET 3.9766 -1.54 2.3863
                      CHANNELS 3 Zrotation Xrotation Yrotation
                      JOINT lMid2_End
                      {
                        OFFSET 1.4042 -1.926 1.125
                        CHANNELS 3 Zrotation Xrotation Yrotation
                        End Site
                        {
                          OFFSET 0.014 -0.0193 0.0113
                        }
                      }
                    }
                  }
                }
                JOINT lCarpal2
                {
                  OFFSET 2.0956 0.66 -0.3894
                  CHANNELS 3 Zrotation Xrotation Yrotation
                  JOINT lRing1
                  {
                    OFFSET 5.0395 -0.09 2.4971
                    CHANNELS 3 Zrotation Xrotation Yrotation
                    JOINT lRing2
                    {
                      OFFSET 3.7921 -1.552 1.4806
                      CHANNELS 3 Zrotation Xrotation Yrotation
                      JOINT lRing2_End
                      {
                        OFFSET 1.4655 -1.808 0.9609
                        CHANNELS 3 Zrotation Xrotation Yrotation
                        End Site
                        {
                          OFFSET 0.0147 -0.0181 0.0096
                        }
                      }
                    }
                  }
                  JOINT lPinky1
                  {
                    OFFSET 4.9141 -1.269 0.3591
                    CHANNELS 3 Zrotation Xrotation Yrotation
                    JOINT lPinky2
                    {
                      OFFSET 3.1477 -1.685 0.8462
                      CHANNELS 3 Zrotation Xrotation Yrotation
                      JOINT lPinky2_End
                      {
                        OFFSET 0.8055 -1.585 0.7955
                        CHANNELS 3 Zrotation Xrotation Yrotation
                        End Site
                        {
                          OFFSET 0.0081 -0.0158 0.008
                        }
                      }
                    }
                  }
                }
              }
            }
          }
        }
        JOINT rCollar
        {
          OFFSET -1.7069 20.075 5.0056
          CHANNELS 3 Zrotation Xrotation Yrotation
          JOINT rShldr
          {
            OFFSET -13.6458 -0.047 -4.849
            CHANNELS 3 Zrotation Xrotation Yrotation
            JOINT rForeArm
            {
              OFFSET -28.3255 -0.9759 2.2888
              CHANNELS 3 Zrotation Xrotation Yrotation
              JOINT rHand
              {
                OFFSET -22.1583 -0.53 10.8316
                CHANNELS 3 Zrotation Xrotation Yrotation
                JOINT rThumb1
                {
                  OFFSET -0.786 0.112 2.5817
                  CHANNELS 3 Zrotation Xrotation Yrotation
                  JOINT rThumb2
                  {
                    OFFSET -0.3601 -0.878 4.2331
                    CHANNELS 3 Zrotation Xrotation Yrotation
                    JOINT rThumb2_End
                    {
                      OFFSET -1.8127 -1.216 2.2227
                      CHANNELS 3 Zrotation Xrotation Yrotation
                      End Site
                      {
                        OFFSET -0.0181 -0.0122 0.0222
                      }
                    }
                  }
                }
                JOINT rCarpal1
                {
                  OFFSET -0.9571 1.114 1.7695
                  CHANNELS 3 Zrotation Xrotation Yrotation
                  JOINT rIndex1
                  {
                    OFFSET -4.1246 0.487 4.1451
                    CHANNELS 3 Zrotation Xrotation Yrotation
                    JOINT rIndex2
                    {
                      OFFSET -3.4052 -1.454 2.7682
                      CHANNELS 3 Zrotation Xrotation Yrotation
                      JOINT rIndex2_End
                      {
                        OFFSET -1.4531 -1.795 1.2713
                        CHANNELS 3 Zrotation Xrotation Yrotation
                        End Site
                        {
                          OFFSET -0.0145 -0.018 0.0127
                        }
                      }
                    }
                  }
                  JOINT rMid1
                  {
                    OFFSET -5.6954 0.21 2.1184
                    CHANNELS 3 Zrotation Xrotation Yrotation
                    JOINT rMid2
                    {
                      OFFSET -3.9766 -1.54 2.3863
                      CHANNELS 3 Zrotation Xrotation Yrotation
                      JOINT rMid2_End
                      {
                        OFFSET -1.4042 -1.926 1.125
                        CHANNELS 3 Zrotation Xrotation Yrotation
                        End Site
                        {
                          OFFSET -0.014 -0.0193 0.0113
                        }
                      }
                    }
                  }
                }
                JOINT rCarpal2
                {
                  OFFSET -2.0956 0.66 -0.3894
                  CHANNELS 3 Zrotation Xrotation Yrotation
                  JOINT rRing1
                  {
                    OFFSET -5.0395 -0.09 2.4971
                    CHANNELS 3 Zrotation Xrotation Yrotation
                    JOINT rRing2
                    {
                      OFFSET -3.7921 -1.552 1.4806
                      CHANNELS 3 Zrotation Xrotation Yrotation
                      JOINT rRing2_End
                      {
                        OFFSET -1.4655 -1.808 0.9609
                        CHANNELS 3 Zrotation Xrotation Yrotation
                        End Site
                        {
                          OFFSET -0.0147 -0.0181 0.0096
                        }
                      }
                    }
                  }
                  JOINT rPinky1
                  {
                    OFFSET -4.9141 -1.269 0.3592
                    CHANNELS 3 Zrotation Xrotation Yrotation
                    JOINT rPinky2
                    {
                      OFFSET -3.1477 -1.685 0.8462
                      CHANNELS 3 Zrotation Xrotation Yrotation
                      JOINT rPinky2_End
                      {
                        OFFSET -0.8055 -1.585 0.7955
                        CHANNELS 3 Zrotation Xrotation Yrotation
                        End Site
                        {
                          OFFSET -0.0081 -0.0158 0.008
                        }
                      }
                    }
                  }
                }
              }
            }
          }
        }
      }
    }
  }
  JOINT lThigh
  {
    OFFSET 8.367 -8.2066 0.5982
    CHANNELS 3 Zrotation Xrotation Yrotation
    JOINT lShin
    {
      OFFSET 2.1923 -43.463 -0.4932
      CHANNELS 3 Zrotation Xrotation Yrotation
      JOINT lFoot
      {
        OFFSET 0.7333 -45.8593 -2.6451
        CHANNELS 3 Zrotation Xrotation Yrotation
        End Site
        {
          OFFSET 2.6618 -4.2699 12.3931
        }
      }
    }
  }
  JOINT rThigh
  {
    OFFSET -8.367 -8.2066 0.5982
    CHANNELS 3 Zrotation Xrotation Yrotation
    JOINT rShin
    {
      OFFSET -2.1923 -43.463 -0.4931
      CHANNELS 3 Zrotation Xrotation Yrotation
      JOINT rFoot
      {
        OFFSET -0.7333 -45.8593 -2.6451
        CHANNELS 3 Zrotation Xrotation Yrotation
        End Site
        {
          OFFSET -2.6618 -4.2699 12.3931
        }
      }
    }
  }
}
MOTION
Frames:	6
Frame Time:	0.0333333
0 91.7903 2.51682 0 0 -0 0 0 -0 0 0 -0 0 0 -0 0 0 -0 0 0 -0 0 0 -0 1.66051 0.0835086 5.75766 -0.0175111 0.895433 15.7816 7.95139e-016 -1.98785e-016 -0 5.46658e-016 -3.97569e-016 -0 5.96354e-016 0 -0 3.97569e-016 1.98785e-016 9.54166e-015 1.49089e-016 -3.97569e-016 -0 6.4605e-016 0 3.18055e-015 5.96354e-016 0 3.18055e-015 8.94531e-016 -1.98785e-016 6.36111e-015 6.4605e-016 0 3.18055e-015 5.96354e-016 0 3.18055e-015 8.94531e-016 -1.98785e-016 6.36111e-015 1.49089e-016 -3.97569e-016 -0 6.4605e-016 0 3.18055e-015 5.96354e-016 0 3.18055e-015 8.94531e-016 -1.98785e-016 6.36111e-015 6.4605e-016 0 3.18055e-015 5.96354e-016 0 3.18055e-015 8.94531e-016 -1.98785e-016 6.36111e-015 0 0 -0 -1.4496 0.0636048 -5.0245 -1.74811 1.20616 -16.8394 -1.19271e-015 1.98785e-016 -3.18055e-015 -3.97569e-016 1.98785e-016 -3.18055e-015 -2.98177e-016 1.98785e-016 -3.18055e-015 -2.98177e-016 3.97569e-016 -0 4.96962e-016 0 -6.36111e-015 -9.93923e-017 3.97569e-016 -0 -8.94531e-016 5.96354e-016 -0 -3.97569e-016 3.97569e-016 -0 -9.93923e-017 3.97569e-016 -0 -8.94531e-016 5.96354e-016 -0 -3.97569e-016 3.97569e-016 -0 4.96962e-016 0 -6.36111e-015 -9.93923e-017 3.97569e-016 -0 -8.94531e-016 5.96354e-016 -0 -3.97569e-016 3.97569e-016 -0 -9.93923e-017 3.97569e-016 -0 -8.94531e-016 5.96354e-016 -0 -3.97569e-016 3.97569e-016 -0 -4.66111 -0.998717 0.12318 0.00986924 1.54847 0.176523 4.65186 -0.572283 -0.254274 4.66111 -0.998765 -0.123176 -0.00986867 1.54869 -0.176537 -4.65186 -0.572453 0.25427 
-28.6653 46.0874 -0.11591 64.5388 47.2292 1.05361e-006 -4.60979 4.77351 -2.69044 -9.03803 9.74393 -5.01284 -9.03801 9.74393 -5.01282 -11.1419 0.110375 -7.86319 -0.679855 -1.01189 15.3463 -9.62519 8.97054 -31.8463 -22.0218 -36.7734 3.70787 -1.70501 7.34262 -17.6802 25.2119 -13.6767 -13.6539 -2.02268e-007 -7.79332e-007 6.8908e-007 4.19189e-007 2.16005e-008 7.70902e-008 8.31051e-007 8.11732e-007 -5.73445e-007 3.97569e-016 0 -7.95139e-016 -2.02268e-007 -7.79332e-007 6.8908e-007 4.19189e-007 2.16005e-008 7.70902e-008 8.31051e-007 8.11732e-007 -5.73445e-007 -2.02268e-007 -7.79332e-007 6.8908e-007 4.19189e-007 2.16005e-008 7.70902e-008 8.31051e-007 8.11732e-007 -5.73445e-007 3.97569e-016 0 -7.95139e-016 -2.02268e-007 -7.79332e-007 6.8908e-007 4.19189e-007 2.16005e-008 7.70902e-008 8.31051e-007 8.11732e-007 -5.73445e-007 -2.02268e-007 -7.79332e-007 6.8908e-007 4.19189e-007 2.16005e-008 7.70902e-008 8.31051e-007 8.11732e-007 -5.73445e-007 -2.67738 3.61804 -11.5675 -1.06707 16.6727 11.2864 -26.9883 -17.2985 3.06029 0.701101 6.19476 2.04863 -9.54166e-015 -1.59028e-015 -3.18055e-015 6.36111e-015 -7.95139e-015 7.15625e-015 -3.18055e-015 -6.36111e-015 7.15625e-015 -9.54166e-015 1.59028e-015 -3.18055e-015 3.18055e-015 -9.54166e-015 9.54166e-015 -1.10348e-031 -3.97569e-015 -1.59028e-015 -6.62086e-032 -1.59028e-015 -2.38542e-015 3.18055e-015 -9.54166e-015 9.54166e-015 -1.10348e-031 -3.97569e-015 -1.59028e-015 -6.62086e-032 -1.59028e-015 -2.38542e-015 -9.54166e-015 1.59028e-015 -3.18055e-015 3.18055e-015 -9.54166e-015 9.54166e-015 -1.10348e-031 -3.97569e-015 -1.59028e-015 -6.62086e-032 -1.59028e-015 -2.38542e-015 3.18055e-015 -9.54166e-015 9.54166e-015 -1.10348e-031 -3.97569e-015 -1.59028e-015 -6.62086e-032 -1.59028e-015 -2.38542e-015 -6.39044 -30.5539 27.5378 2.96544 53.6317 -1.99151 6.39252 2.16615 -4.44749 -17.2774 -31.0933 -19.6199 2.63652 17.1576 -3.29124 7.51209 9.50194 -2.53119 
-45.0415 12.1333 -6.498 118.364 86.618 1.17528e-005 -7.81033 8.18953 -5.61151 -15.0166 17.0392 -10.2025 -15.0166 17.0392 -10.2025 -20.3861 0.193547 -14.4214 -0.848244 -1.69684 28.154 -11.3187 10.2017 -59.0906 -47.8572 -67.2694 -2.81689 1.03181 6.73294 -45.6914 46.4528 -22.5981 -22.3031 -5.56597e-015 1.59028e-015 -1.27222e-014 -3.02157e-006 6.06677e-007 7.42294e-007 3.02157e-006 -6.06677e-007 -7.42294e-007 -3.97569e-015 1.59028e-015 -3.18055e-015 -7.15625e-015 7.95139e-015 -3.18055e-015 -3.02157e-006 6.06677e-007 7.42294e-007 3.02157e-006 -6.06677e-007 -7.42294e-007 -7.15625e-015 7.95139e-015 -3.18055e-015 -3.02157e-006 6.06677e-007 7.42294e-007 3.02157e-006 -6.06677e-007 -7.42294e-007 -3.97569e-015 1.59028e-015 -3.18055e-015 -7.15625e-015 7.95139e-015 -3.18055e-015 -3.02157e-006 6.06677e-007 7.42294e-007 3.02157e-006 -6.06677e-007 -7.42294e-007 -7.15625e-015 7.95139e-015 -3.18055e-015 -3.02157e-006 6.06677e-007 7.42294e-007 3.02157e-006 -6.06677e-007 -7.42294e-007 -3.81144 6.31358 -21.3073 -8.43002 27.5353 27.6424 -39.8278 -27.3859 22.4 1.01091 11.2466 3.95887 1.39149e-015 3.97569e-016 3.18055e-015 2.1535e-006 -1.80916e-007 -2.89634e-007 -1.78906e-015 -3.97569e-016 -3.18055e-015 1.39149e-015 -7.95139e-016 3.18055e-015 2.38542e-015 0 -0 2.1535e-006 -1.80916e-007 -2.89634e-007 -4.57205e-015 -2.78299e-015 -3.18055e-015 2.38542e-015 0 -0 2.1535e-006 -1.80916e-007 -2.89634e-007 -4.57205e-015 -2.78299e-015 -3.18055e-015 1.39149e-015 -7.95139e-016 3.18055e-015 2.38542e-015 0 -0 2.1535e-006 -1.80916e-007 -2.89634e-007 -4.57205e-015 -2.78299e-015 -3.18055e-015 2.38542e-015 0 -0 2.1535e-006 -1.80916e-007 -2.89634e-007 -4.57205e-015 -2.78299e-015 -3.18055e-015 9.25293 -41.3912 62.8139 68.6853 84.9127 -65.5236 11.4243 10.425 -6.15398 -60.773 -48.8307 -52.0403 8.27025 39.257 -6.93387 17.0798 12.1349 -4.76867 
-49.6382 4.66542 -8.95382 -48.1528 83.5148 -180 -8.51007 8.94169 -6.44016 -16.266 18.7004 -11.6847 -16.266 18.7004 -11.6847 -22.5867 0.193078 -16.0654 -0.840666 -1.83061 31.364 -11.4365 9.19054 -65.7569 -58.7746 -74.7156 -8.73583 1.74268 5.48428 -52.3459 51.9066 -24.3282 -24.1322 1.59028e-015 0 1.59028e-014 -2.72596e-006 4.09222e-006 6.672e-007 -3.18055e-015 7.95139e-016 -3.18055e-015 1.59028e-015 0 3.18055e-015 7.95139e-016 -5.56597e-015 -0 -2.72596e-006 4.09222e-006 6.672e-007 0 0 -0 7.95139e-016 -5.56597e-015 -0 -2.72596e-006 4.09222e-006 6.672e-007 0 0 -0 1.59028e-015 0 3.18055e-015 7.95139e-016 -5.56597e-015 -0 -2.72596e-006 4.09222e-006 6.672e-007 0 0 -0 7.95139e-016 -5.56597e-015 -0 -2.72596e-006 4.09222e-006 6.672e-007 0 0 -0 -3.94836 6.91084 -23.7668 -11.3759 29.477 32.2777 -42.0835 -28.7008 27.6533 1.0456 12.4936 4.47113 1.19271e-015 -3.18055e-015 7.95139e-016 1.19271e-015 0 -0 2.38542e-015 -3.18055e-015 7.95139e-016 -3.97569e-016 -3.18055e-015 7.95139e-016 3.97569e-016 -3.18055e-015 7.95139e-015 3.97569e-015 0 7.95139e-016 5.1684e-015 0 1.59028e-015 3.97569e-016 -3.18055e-015 7.95139e-015 3.97569e-015 0 7.95139e-016 5.1684e-015 0 1.59028e-015 -3.97569e-016 -3.18055e-015 7.95139e-016 3.97569e-016 -3.18055e-015 7.95139e-015 3.97569e-015 0 7.95139e-016 5.1684e-015 0 1.59028e-015 3.97569e-016 -3.18055e-015 7.95139e-015 3.97569e-015 0 7.95139e-016 5.1684e-015 0 1.59028e-015 14.3671 -40.9293 72.6665 143.761 80.8603 -139.097 12.8302 11.2618 -6.48633 -75.0384 -50.0644 -62.7107 10.3246 44.9121 -8.40193 19.1409 12.5297 -5.19973 
-46.8808 9.02636 -7.47655 -56.0607 89.3018 180 -8.10483 8.50617 -5.9495 -15.5458 17.7354 -10.8059 -15.5458 17.7354 -10.8059 -21.058 0.150088 -15.1037 -0.847322 -1.7543 29.4813 -11.3656 9.85136 -61.8645 -51.8066 -70.3732 -4.7073 1.32968 6.32044 -48.0846 48.7008 -23.3409 -23.0744 -3.71246e-006 9.93874e-007 -2.94986e-006 3.34951e-007 1.93592e-006 -3.0056e-006 -3.18055e-015 -7.95139e-015 -9.54166e-015 1.59028e-015 -1.59028e-015 -3.18055e-015 -3.71246e-006 9.93874e-007 -2.94986e-006 3.34951e-007 1.93592e-006 -3.0056e-006 1.59028e-015 -3.18055e-015 -1.27222e-014 -3.71246e-006 9.93874e-007 -2.94986e-006 3.34951e-007 1.93592e-006 -3.0056e-006 1.59028e-015 -3.18055e-015 -1.27222e-014 1.59028e-015 -1.59028e-015 -3.18055e-015 -3.71246e-006 9.93874e-007 -2.94986e-006 3.34951e-007 1.93592e-006 -3.0056e-006 1.59028e-015 -3.18055e-015 -1.27222e-014 -3.71246e-006 9.93874e-007 -2.94986e-006 3.34951e-007 1.93592e-006 -3.0056e-006 1.59028e-015 -3.18055e-015 -1.27222e-014 -3.87492 6.56503 -22.3233 -9.59807 28.3842 29.5346 -40.7961 -27.9966 24.5612 1.02744 11.7632 4.16894 2.38542e-015 2.70347e-014 -3.18055e-015 2.78299e-015 1.74931e-014 -3.18055e-015 3.18055e-015 2.22639e-014 -4.77083e-015 1.98785e-015 1.59028e-015 -0 -3.97569e-016 2.70347e-014 4.77083e-015 0 2.38542e-014 -0 -7.95139e-016 2.06736e-014 -3.18055e-015 -3.97569e-016 2.70347e-014 4.77083e-015 0 2.38542e-014 -0 -7.95139e-016 2.06736e-014 -3.18055e-015 1.98785e-015 1.59028e-015 -0 -3.97569e-016 2.70347e-014 4.77083e-015 0 2.38542e-014 -0 -7.95139e-016 2.06736e-014 -3.18055e-015 -3.97569e-016 2.70347e-014 4.77083e-015 0 2.38542e-014 -0 -7.95139e-016 2.06736e-014 -3.18055e-015 11.3824 -41.401 66.9477 111.353 84.6084 -107.584 12.0497 10.8154 -6.30191 -66.5942 -49.5154 -56.4105 9.08239 41.6057 -7.49361 17.9557 12.2917 -4.95264 
-46.5624 9.55168 -7.30649 -57.0437 89.9952 -179.965 -8.05526 8.45292 -5.89161 -15.4571 17.618 -10.7024 -15.4571 17.618 -10.7024 -20.7425 0.120764 -14.9898 -0.847698 -1.74474 29.2558 -11.3577 9.91762 -61.3947 -51.0925 -69.8476 -4.34385 1.27253 6.43583 -47.3636 48.318 -23.2174 -22.9448 -8.78409e-007 -1.59226e-006 -2.78364e-006 1.21851e-006 3.57977e-006 -2.00435e-007 -4.39205e-007 -7.96128e-007 -1.39182e-006 -6.36111e-015 3.18055e-015 -3.18055e-015 -8.78409e-007 -1.59226e-006 -2.78364e-006 1.21851e-006 3.57977e-006 -2.00435e-007 -4.39205e-007 -7.96128e-007 -1.39182e-006 -8.78409e-007 -1.59226e-006 -2.78364e-006 1.21851e-006 3.57977e-006 -2.00435e-007 -4.39205e-007 -7.96128e-007 -1.39182e-006 -6.36111e-015 3.18055e-015 -3.18055e-015 -8.78409e-007 -1.59226e-006 -2.78364e-006 1.21851e-006 3.57977e-006 -2.00435e-007 -4.39205e-007 -7.96128e-007 -1.39182e-006 -8.78409e-007 -1.59226e-006 -2.78364e-006 1.21851e-006 3.57977e-006 -2.00435e-007 -4.39205e-007 -7.96128e-007 -1.39182e-006 -3.86479 6.52273 -22.1505 -9.3945 28.2444 29.2105 -40.6353 -27.8994 24.1927 1.02485 11.6755 4.13307 -8.82781e-032 -1.59028e-015 -3.18055e-015 -7.95139e-016 3.18055e-015 -3.18055e-015 -1.59028e-015 3.18055e-015 -3.18055e-015 3.18055e-015 -3.18055e-015 -3.18055e-015 -5.56597e-015 3.18055e-015 3.18055e-015 -1.98785e-015 1.59028e-015 -6.36111e-015 3.57812e-015 -1.59028e-015 -0 -5.56597e-015 3.18055e-015 3.18055e-015 -1.98785e-015 1.59028e-015 -6.36111e-015 3.57812e-015 -1.59028e-015 -0 3.18055e-015 -3.18055e-015 -3.18055e-015 -5.56597e-015 3.18055e-015 3.18055e-015 -1.98785e-015 1.59028e-015 -6.36111e-015 3.57812e-015 -1.59028e-015 -0 -5.56597e-015 3.18055e-015 3.18055e-015 -1.98785e-015 1.59028e-015 -6.36111e-015 3.57812e-015 -1.59028e-015 -0 11.0216 -41.4186 66.2496 104.807 84.8549 -101.143 11.9472 10.7545 -6.27808 -65.5956 -49.4165 -55.6619 8.94087 41.2075 -7.39426 17.8091 12.2647 -4.92198 
